<svg t="1744592513969" class="icon" viewBox="0 0 1024 1024" version="1.1" xmlns="http://www.w3.org/2000/svg" p-id="4458" width="200" height="200"><path d="M252.672 126.464h349.952c7.936 0 15.616 3.328 20.736 8.704l214.016 213.504c5.376 5.888 8.448 13.312 8.448 20.992v445.44c0 22.016-8.704 41.728-23.04 55.552v0.512l-0.768 0.768c-14.336 13.568-33.536 22.528-55.296 22.528H252.672c-21.504 0-41.472-8.704-55.808-23.296-14.08-14.336-22.784-34.048-22.784-55.808V205.568c0-21.504 8.704-41.216 22.784-55.808 14.336-14.592 34.048-23.296 55.808-23.296z m70.912 568.064c-7.168 6.912-17.92 6.912-25.088 0-6.912-7.168-6.912-18.176 0-25.088l148.736-148.48c6.656-7.168 17.92-7.168 25.088 0l0.768 0.768 86.784 86.528 136.192-136.448c6.656-6.656 17.92-6.656 24.832 0 7.168 6.656 7.168 18.432 0 24.832l-148.736 148.992c-6.656 6.912-17.92 6.912-24.832 0l-1.024-1.28-86.528-86.272-136.192 136.448z m462.848-306.944h-134.4c-18.432 0-35.072-7.424-47.36-19.712l-1.024-1.28c-11.52-12.032-18.688-28.672-18.688-46.336V185.6H252.672c-5.376 0-10.752 2.304-13.824 5.888-3.84 3.84-6.4 8.704-6.4 14.336v609.536c0 5.12 2.56 10.24 6.4 14.336h-0.512c3.584 3.584 8.704 5.888 14.336 5.888h513.792c5.888 0 11.008-2.304 14.336-5.888h0.512c3.072-4.096 5.376-8.96 5.376-14.336V387.584h-0.256z m-29.696-35.84l-136.704-136.192V320c0 7.936 3.072 15.616 8.704 21.504l1.024 0.768c5.376 5.632 13.312 9.216 22.272 9.216h104.704v0.256z" fill="#040000" p-id="4459"></path></svg>